name rise38.3101peak57.3503fall81.6963.mot
datacolumns 19
datarows 20
range 21.27825600000000 21.30992100000000
endheader
time	ground_force1_vx	ground_force1_vy	ground_force1_vz	ground_force1_px	ground_force1_py	ground_force1_pz	ground_force2_vx	ground_force2_vy	ground_force2_vz	ground_force2_px	ground_force2_py	ground_force2_pz	ground_torque1_x	ground_torque1_y	ground_torque1_z	ground_torque2_x	ground_torque2_y	ground_torque2_z	
21.27825600000000	-8.38101900000000	41.31214200000000	-8.73181500000000	0.36382300000000	0.00000000000000	0.06449900000000	-60.63664700000000	780.43572800000004	-47.64974700000000	0.12913100000000	0.00000000000000	-0.09402600000000	0.00000000000000	-6.66425200000000	0.00000000000000	0.00000000000000	-23.12371700000000	0.00000000000000	
21.27992500000000	-9.12429000000000	48.34633200000000	-9.89749500000000	0.36823300000000	0.00000000000000	0.06518000000000	-61.00285000000000	777.18930399999999	-46.95447800000000	0.12859000000000	0.00000000000000	-0.09393300000000	0.00000000000000	-7.62300100000000	0.00000000000000	0.00000000000000	-22.96586200000000	0.00000000000000	
21.28159100000000	-9.69126900000000	55.45410200000000	-10.98494500000000	0.37222100000000	0.00000000000000	0.06581600000000	-61.37506000000000	773.83915800000000	-46.24050600000000	0.12805000000000	0.00000000000000	-0.09383500000000	0.00000000000000	-8.53597000000000	0.00000000000000	0.00000000000000	-22.80880500000000	0.00000000000000	
21.28326100000000	-10.05916700000000	62.54440200000000	-11.97115900000000	0.37584900000000	0.00000000000000	0.06641300000000	-61.75329300000000	770.38394400000004	-45.50810200000000	0.12751000000000	0.00000000000000	-0.09373300000000	0.00000000000000	-9.38454000000000	0.00000000000000	0.00000000000000	-22.65265100000000	0.00000000000000	
21.28492400000000	-10.21502800000000	69.54957400000001	-12.84028900000000	0.37916800000000	0.00000000000000	0.06697600000000	-62.13750300000000	766.82223599999998	-44.75756000000000	0.12697000000000	0.00000000000000	-0.09362600000000	0.00000000000000	-10.15540300000000	0.00000000000000	0.00000000000000	-22.49748900000000	0.00000000000000	
21.28659600000000	-10.15551100000000	76.42737099999999	-13.58383100000000	0.38221900000000	0.00000000000000	0.06750900000000	-62.52757500000000	763.15252699999996	-43.98920600000000	0.12643000000000	0.00000000000000	-0.09351600000000	0.00000000000000	-10.84081300000000	0.00000000000000	0.00000000000000	-22.34339400000000	0.00000000000000	
21.28825400000000	-9.88591900000000	83.16056200000000	-14.20018500000000	0.38503900000000	0.00000000000000	0.06801600000000	-62.92332900000000	759.37323600000002	-43.20339200000000	0.12589000000000	0.00000000000000	-0.09340000000000	0.00000000000000	-11.43833700000000	0.00000000000000	0.00000000000000	-22.19042600000000	0.00000000000000	
21.28992500000000	-9.41869000000000	89.75453000000000	-14.69371600000000	0.38765500000000	0.00000000000000	0.06850000000000	-63.32451200000000	755.48270500000001	-42.40050000000000	0.12535100000000	0.00000000000000	-0.09328000000000	0.00000000000000	-11.95021400000000	0.00000000000000	0.00000000000000	-22.03862700000000	0.00000000000000	
21.29158800000000	-8.77155700000000	96.23342400000000	-15.07349800000000	0.39009300000000	0.00000000000000	0.06896300000000	-63.73079600000000	751.47920899999997	-41.58094500000000	0.12481200000000	0.00000000000000	-0.09315600000000	0.00000000000000	-12.38243900000000	0.00000000000000	0.00000000000000	-21.88802200000000	0.00000000000000	
21.29326200000000	-7.96559700000000	102.63543300000001	-15.35188500000000	0.39237200000000	0.00000000000000	0.06940600000000	-64.14177800000000	747.36095299999999	-40.74517300000000	0.12427400000000	0.00000000000000	-0.09302700000000	0.00000000000000	-12.74369100000000	0.00000000000000	0.00000000000000	-21.73862200000000	0.00000000000000	
21.29492700000000	-7.02333800000000	109.00771600000000	-15.54306500000000	0.39451200000000	0.00000000000000	0.06983300000000	-64.55698000000000	743.12608299999999	-39.89366100000000	0.12373700000000	0.00000000000000	-0.09289300000000	0.00000000000000	-13.04423700000000	0.00000000000000	0.00000000000000	-21.59041900000000	0.00000000000000	
21.29658900000000	-5.96707400000000	115.40147800000000	-15.66171700000000	0.39652600000000	0.00000000000000	0.07024400000000	-64.97584000000001	738.77268800000002	-39.02692100000000	0.12320000000000	0.00000000000000	-0.09275500000000	0.00000000000000	-13.29488600000000	0.00000000000000	0.00000000000000	-21.44338500000000	0.00000000000000	
21.29826100000000	-4.81748600000000	121.86753899999999	-15.72185800000000	0.39842700000000	0.00000000000000	0.07064000000000	-65.39772200000000	734.29881100000000	-38.14549900000000	0.12266400000000	0.00000000000000	-0.09261200000000	0.00000000000000	-13.50608600000000	0.00000000000000	0.00000000000000	-21.29747800000000	0.00000000000000	
21.29992600000000	-3.59262400000000	128.45267799999999	-15.73594000000000	0.40022700000000	0.00000000000000	0.07102300000000	-65.82190500000000	729.70245499999999	-37.24997700000000	0.12213000000000	0.00000000000000	-0.09246400000000	0.00000000000000	-13.68720200000000	0.00000000000000	0.00000000000000	-21.15263700000000	0.00000000000000	
21.30159200000000	-2.30726300000000	135.19688099999999	-15.71422500000000	0.40193600000000	0.00000000000000	0.07139300000000	-66.24758700000000	724.98159399999997	-36.34096900000000	0.12159800000000	0.00000000000000	-0.09231100000000	0.00000000000000	-13.84600100000000	0.00000000000000	0.00000000000000	-21.00878100000000	0.00000000000000	
21.30325600000000	-0.97262000000000	142.13155399999999	-15.66443200000000	0.40356100000000	0.00000000000000	0.07175200000000	-66.67388900000000	720.13418300000001	-35.41912600000000	0.12106700000000	0.00000000000000	-0.09215300000000	0.00000000000000	-13.98834600000000	0.00000000000000	0.00000000000000	-20.86581400000000	0.00000000000000	
21.30492000000000	0.40361100000000	149.27866299999999	-15.59163800000000	0.40510900000000	0.00000000000000	0.07210000000000	-67.09984700000000	715.15816900000004	-34.48513600000000	0.12053900000000	0.00000000000000	-0.09199100000000	0.00000000000000	-14.11809700000000	0.00000000000000	0.00000000000000	-20.72362000000000	0.00000000000000	
21.30659000000000	1.81697100000000	156.65069000000000	-15.49839700000000	0.40658800000000	0.00000000000000	0.07243800000000	-67.52442100000000	710.05150800000001	-33.53971900000000	0.12001400000000	0.00000000000000	-0.09182400000000	0.00000000000000	-14.23716700000000	0.00000000000000	0.00000000000000	-20.58206900000000	0.00000000000000	
21.30825700000000	3.26575400000000	164.25126200000000	-15.38502100000000	0.40800100000000	0.00000000000000	0.07276600000000	-67.94649099999999	704.81217300000003	-32.58363300000000	0.11949200000000	0.00000000000000	-0.09165100000000	0.00000000000000	-14.34572200000000	0.00000000000000	0.00000000000000	-20.44101000000000	0.00000000000000	
21.30992100000000	4.75041300000000	172.07628800000001	-15.24998100000000	0.40935500000000	0.00000000000000	0.07308400000000	-68.36486300000000	699.43817799999999	-31.61766700000000	0.11897300000000	0.00000000000000	-0.09147400000000	0.00000000000000	-14.44247500000000	0.00000000000000	0.00000000000000	-20.30027800000000	0.00000000000000	
